<svg xmlns="http://www.w3.org/2000/svg" viewBox="0 0 29.76 36.73"><g id="Layer_2" data-name="Layer 2"><g id="Layer_6" data-name="Layer 6"><path d="M14.88,33.37l1,.82a1.44,1.44,0,0,1,0,2.16l-.07,0h0a1.42,1.42,0,0,1-1.8,0h0a60,60,0,0,1-6.9-6.74C2.38,24.28,0,19.51,0,15.36v-.25A15,15,0,0,1,14.65,0,14.9,14.9,0,0,1,29.76,14.88v.41a11.78,11.78,0,0,1-.11,1.55A1.44,1.44,0,0,1,27.87,18h0a1.42,1.42,0,0,1-1.06-1.59,9,9,0,0,0,.08-1.15v-.21a12,12,0,1,0-24-.2v.41c0,7,9,15.5,12,18.08Z" style="fill:#6699cc"/><path d="M14.88,8a6.9,6.9,0,1,0,6.9,6.9A6.91,6.91,0,0,0,14.88,8Zm0,10.89a4,4,0,1,1,4-4A4,4,0,0,1,14.88,18.87Z" style="fill:#6699cc"/></g></g></svg>