<svg xmlns="http://www.w3.org/2000/svg" viewBox="0 0 196.45 70.65"><g id="Layer_2" data-name="Layer 2"><g id="Layer_10" data-name="Layer 10"><path d="M42.13,70.54V61.66h.61v8.27h5v.61Z" style="fill:#231f20"/><path d="M58.65,70.64A4.48,4.48,0,0,1,56.39,70a4.63,4.63,0,0,1-1.64-1.65,4.63,4.63,0,0,1,0-4.56,4.63,4.63,0,0,1,1.64-1.65,4.49,4.49,0,0,1,4.52,0,4.63,4.63,0,0,1,1.64,1.65,4.63,4.63,0,0,1,0,4.56A4.63,4.63,0,0,1,60.91,70,4.48,4.48,0,0,1,58.65,70.64Zm0-8.45a3.75,3.75,0,0,0-1.94.53,4,4,0,0,0-1.42,1.42,4,4,0,0,0,0,3.92,4,4,0,0,0,1.42,1.42,3.82,3.82,0,0,0,3.88,0,3.92,3.92,0,0,0,0-6.76A3.75,3.75,0,0,0,58.65,62.19Z" style="fill:#231f20"/><path d="M77.87,70.54H74.65a4.37,4.37,0,0,1-2.24-.6,4.48,4.48,0,0,1-2.22-3.89,4.36,4.36,0,0,1,.6-2.25,4.47,4.47,0,0,1,1.62-1.64,4.29,4.29,0,0,1,2.24-.61,4.43,4.43,0,0,1,1.79.38A4.49,4.49,0,0,1,77.92,63l-.45.42a3.88,3.88,0,0,0-1.28-.91,3.93,3.93,0,0,0-1.54-.32,3.69,3.69,0,0,0-1.92.52,3.86,3.86,0,0,0-1.41,1.4,3.71,3.71,0,0,0-.52,1.94A3.76,3.76,0,0,0,71.32,68a3.89,3.89,0,0,0,1.41,1.41,3.7,3.7,0,0,0,1.92.53h2.57V66.74H74.3v-.61h3.57Z" style="fill:#231f20"/><path d="M86.12,70.54V61.66h.62v8.88Z" style="fill:#231f20"/><path d="M100.63,67.1a1.95,1.95,0,0,1,.1,2.07,2.43,2.43,0,0,1-.71.8,3.78,3.78,0,0,1-2.23.68,4,4,0,0,1-1.2-.18,3.46,3.46,0,0,1-1-.5,2.27,2.27,0,0,1-.95-1.41l.59-.33A1.55,1.55,0,0,0,96,69.46a2.59,2.59,0,0,0,.83.42,3.73,3.73,0,0,0,1,.14,3,3,0,0,0,1.85-.56,1.53,1.53,0,0,0,.72-1.26,1.38,1.38,0,0,0-.26-.79,2.37,2.37,0,0,0-.75-.63,5.7,5.7,0,0,0-1.61-.37c-.07,0-.3,0-.69-.11a3.41,3.41,0,0,1-1-.3,2.57,2.57,0,0,1-1-.86A2,2,0,0,1,94.6,64a1.85,1.85,0,0,1,.25-.95,2.55,2.55,0,0,1,.72-.79,3.23,3.23,0,0,1,1-.5,4,4,0,0,1,1.2-.18,3.78,3.78,0,0,1,2.23.68,2.22,2.22,0,0,1,.93,1.4l-.59.32a1.33,1.33,0,0,0-.2-.65,2,2,0,0,0-.52-.58,2.68,2.68,0,0,0-.85-.41,3.32,3.32,0,0,0-1-.15,3.37,3.37,0,0,0-1,.15,2.44,2.44,0,0,0-.84.41,2.13,2.13,0,0,0-.55.58,1.29,1.29,0,0,0-.19.67,1.39,1.39,0,0,0,.31.84,2.23,2.23,0,0,0,.78.65,3,3,0,0,0,.64.2l.89.13.48.06c.26,0,.5.09.74.15a2.87,2.87,0,0,1,.6.24A2.76,2.76,0,0,1,100.63,67.1Z" style="fill:#231f20"/><path d="M115.51,61.66v.63H112v8.25h-.63V62.29h-3.52v-.63Z" style="fill:#231f20"/><path d="M123.12,70.54V61.66h.61v8.88Z" style="fill:#231f20"/><path d="M135.92,70.64a4.33,4.33,0,0,1-2.25-.62,4.54,4.54,0,0,1-2.24-3.93,4.45,4.45,0,0,1,.6-2.27,4.58,4.58,0,0,1,1.64-1.66,4.32,4.32,0,0,1,2.25-.61,4.41,4.41,0,0,1,1.82.39,4.66,4.66,0,0,1,1.52,1.1l-.48.42a3.67,3.67,0,0,0-1.29-1,3.71,3.71,0,0,0-1.57-.35,3.77,3.77,0,0,0-1.94.53,4,4,0,0,0-1.41,1.43A3.95,3.95,0,0,0,134,69.48a3.77,3.77,0,0,0,1.94.53,3.85,3.85,0,0,0,1.67-.38,4,4,0,0,0,1.34-1.07l.49.38a4.27,4.27,0,0,1-1.55,1.25A4.36,4.36,0,0,1,135.92,70.64Z" style="fill:#231f20"/><path d="M147.93,68.29l-1.06,2.25h-.68l4.18-9,3.95,9h-.67l-1-2.25Zm2.41-5.22-2.13,4.6h4.17Z" style="fill:#231f20"/><path d="M24.9,50.35A24.9,24.9,0,1,1,46.5,13.28c-4.2,2.2-4.54,2.4-9.22,4.67A14.31,14.31,0,0,0,24.9,10.87,14.58,14.58,0,0,0,24.9,40,14.31,14.31,0,0,0,37.69,32.4c4.68,2.41,4.82,2.68,9.22,4.68A24.69,24.69,0,0,1,24.9,50.35Z" style="fill:#069"/><path d="M62,16.3v34H52.62V1H65L86.94,31.64V1h9.15V50.28H86.94Z" style="fill:#231f20"/><path d="M113.77,30.61V41.06h27.72v9.08H103.31V.89h35.84V10H113.77V21.05h22.42v9.56Z" style="fill:#231f20"/><path d="M156,25.45a14.93,14.93,0,1,1,29.85,0,15,15,0,0,1-4.13,10.33l7.42,7.43a25.39,25.39,0,1,0-18.63,7.61l-.09-10.39A15.13,15.13,0,0,1,156,25.45Z"/><path d="M178.6,38.16A14.63,14.63,0,0,1,174.23,40l.09,10.56a25.4,25.4,0,0,0,11.79-4.91Z" style="fill:#069"/></g></g></svg>