<svg xmlns="http://www.w3.org/2000/svg" viewBox="0 0 25.9 35.26"><g id="Layer_2" data-name="Layer 2"><g id="Layer_9" data-name="Layer 9"><path d="M24.52,27.86h0a1.38,1.38,0,0,1,1.38,1.38v1.89a4.13,4.13,0,0,1-4.14,4.13H4.13A4.13,4.13,0,0,1,0,31.13v-27A4.13,4.13,0,0,1,4.13,0H21.76A4.13,4.13,0,0,1,25.9,4.13V6a1.37,1.37,0,0,1-1.38,1.37h0A1.37,1.37,0,0,1,23.14,6V4.13a1.38,1.38,0,0,0-1.38-1.38H4.13A1.38,1.38,0,0,0,2.75,4.13v27a1.38,1.38,0,0,0,1.38,1.38H21.76a1.38,1.38,0,0,0,1.38-1.38V29.24A1.38,1.38,0,0,1,24.52,27.86ZM14.33,5.52H11.57A1.38,1.38,0,0,0,10.19,6.9h0a1.37,1.37,0,0,0,1.38,1.37h2.76A1.37,1.37,0,0,0,15.7,6.9h0A1.37,1.37,0,0,0,14.33,5.52ZM11.57,28.38A1.38,1.38,0,1,0,13,27a1.38,1.38,0,0,0-1.38,1.37Z" style="fill:#6699cc"/></g></g></svg>